<?xml version="1.0" standalone="no"?>
<!DOCTYPE svg PUBLIC "-//W3C//DTD SVG 20010904//EN"
 "http://www.w3.org/TR/2001/REC-SVG-20010904/DTD/svg10.dtd">
<svg version="1.0" xmlns="http://www.w3.org/2000/svg"
 width="1080.000000pt" height="1080.000000pt" viewBox="0 0 1080.000000 1080.000000"
 preserveAspectRatio="xMidYMid meet">
<metadata>
Created by potrace 1.14, written by Peter Selinger 2001-2017
</metadata>
<g transform="translate(0.000000,1080.000000) scale(0.100000,-0.100000)"
fill="#000000" stroke="none">
<path d="M3110 10794 c-19 -2 -84 -9 -144 -14 -531 -52 -1071 -252 -1536 -571
-311 -212 -637 -541 -849 -854 -255 -377 -431 -795 -515 -1221 -67 -342 -66
-291 -66 -2734 0 -2443 -1 -2392 66 -2734 57 -288 145 -542 288 -831 164 -330
356 -595 621 -860 542 -543 1209 -863 1990 -957 162 -19 4708 -19 4870 0 419
50 771 155 1132 336 331 166 592 354 858 621 253 252 448 519 603 823 193 377
288 689 354 1152 16 119 24 4560 8 4770 -35 458 -138 831 -344 1245 -164 330
-356 595 -621 860 -266 267 -527 455 -858 621 -354 178 -669 272 -1117 336
-64 9 -660 12 -2395 13 -1270 1 -2326 0 -2345 -1z m1599 -4534 l657 -1605 29
0 29 0 657 1605 657 1605 623 0 624 0 3 -2392 2 -2393 -495 0 -495 0 0 1555
c0 1491 -1 1555 -18 1555 -15 0 -135 -292 -636 -1545 l-618 -1545 -333 0 -333
0 -397 998 c-819 2056 -840 2107 -858 2110 -16 3 -17 -94 -17 -1562 l0 -1566
-495 0 -495 0 0 2388 c0 1314 3 2392 7 2395 3 4 285 6 626 5 l619 -3 657
-1605z"/>
</g>
</svg>
